<?xml version="1.0" encoding="UTF-8" standalone="no"?>
<!-- Created with Inkscape (http://www.inkscape.org/) -->

<svg
   xmlns:dc="http://purl.org/dc/elements/1.1/"
   xmlns:cc="http://creativecommons.org/ns#"
   xmlns:rdf="http://www.w3.org/1999/02/22-rdf-syntax-ns#"
   xmlns:svg="http://www.w3.org/2000/svg"
   xmlns="http://www.w3.org/2000/svg"
   xmlns:sodipodi="http://sodipodi.sourceforge.net/DTD/sodipodi-0.dtd"
   xmlns:inkscape="http://www.inkscape.org/namespaces/inkscape"
   width="175.9893mm"
   height="137.44061mm"
   viewBox="0 0 623.58414 486.99429"
   id="svg2"
   version="1.1"
   inkscape:version="0.91 r13725"
   sodipodi:docname="region.svg">
  <defs
     id="defs4">
    <clipPath
       clipPathUnits="userSpaceOnUse"
       id="clipPath4306">
      <path
         clip-path="none"
         sodipodi:nodetypes="ccccscssssscssccccccccccccsscssssscscccccscccsssscccsssc"
         inkscape:connector-curvature="0"
         id="path4308"
         d="m 254.0241,799.59655 c 5.3033,20.85965 13.26156,38.30242 33.06055,59.51562 l 14.93945,1.48438 38.87891,39.64648 c 0,0 5.28862,15.44438 -2.64649,17.05078 -7.93511,1.6064 -20.58594,-23.33203 -20.58594,-23.33203 -8.48528,12.02082 0.0756,45.45124 -6.18164,69.70703 -6.25729,24.25579 -26.51423,45.22809 -33.69726,73.44329 -7.18303,28.2153 -7.57047,67.6717 -0.23242,68.9004 8.11867,1.3595 18.02519,1.5034 22.2832,8.2305 4.25801,6.7272 4.01083,18.126 -5.06055,20.1719 -9.07138,2.0459 -24.95028,7.6867 -15.05078,33.4961 0,0 1.923,-10.1056 9.92969,-13.7891 8.00669,-3.6835 22.80401,3.5568 36.8789,-7.8672 14.07491,-11.4239 5.47416,-31.1224 9.7168,-36.7793 l 107,-104.1816 99.51758,99.3027 9.5,27.75 29.01562,26.6719 c 13,-0.75 10.98438,-21.1719 10.98438,-21.1719 l 0.5918,-0.7304 c 0,0 20.42187,2.0156 21.17187,-10.9844 l -26.67187,-29.0156 -27.75,-9.5 -99.30274,-99.5176 104.18164,-107 c 5.65685,-4.24264 25.35538,4.3581 36.7793,-9.7168 11.42392,-14.07489 4.18368,-28.87221 7.86719,-36.8789 3.68351,-8.00669 13.78906,-9.92969 13.78906,-9.92969 -25.80939,-9.8995 -31.4502,5.9794 -33.49609,15.05078 -2.04589,9.07138 -13.44474,9.31856 -20.17188,5.06055 -6.72715,-4.25801 -6.87105,-14.16453 -8.23047,-22.2832 -1.22871,-7.33805 -40.68518,-6.95061 -68.90039,0.23242 -28.2152,7.18303 -49.18757,27.43997 -73.44336,33.69726 -24.25579,6.25724 -57.68621,-2.30364 -69.70703,6.18164 0,0 24.93843,12.65083 23.33203,20.58594 -1.6064,7.93511 -17.05078,2.64649 -17.05078,2.64649 l -39.64648,-38.87891 -1.48438,-14.93945 c -21.2132,-19.79899 -38.65597,-27.75725 -59.51562,-33.06055 -0.65625,-0.1875 -0.8418,0.0117 -0.5918,0.73047 z m 257.55469,51.69531 c 14.75529,-0.18922 31.85842,2.85711 50.45312,12.06055 L 448.54168,974.72155 392.32683,918.86022 c 2.12132,-9.89949 14.05075,-4.00782 26.16211,-7.42578 12.11134,-3.41795 -0.0496,-9.03099 7.42578,-19.44531 7.47544,-10.41432 33.96317,-27.8309 52.67969,-34.64844 8.77337,-3.19572 19.965,-5.88187 32.98438,-6.04883 z m -137.56055,86.01563 55.86133,56.21484 -111.36914,113.49017 c -17.32411,-35.0017 -12.82925,-64.7209 -6.01172,-83.4375 6.81754,-18.7165 24.23412,-45.20419 34.64844,-52.67962 10.41432,-7.47543 16.02736,4.68555 19.44531,-7.42578 3.41796,-12.11136 -2.47371,-24.04079 7.42578,-26.16211 z"
         style="fill:#d9ad5c;fill-opacity:1;fill-rule:evenodd;stroke:none;stroke-width:5;stroke-linecap:round;stroke-linejoin:round;stroke-miterlimit:4;stroke-dasharray:none;stroke-opacity:1" />
    </clipPath>
    <filter
       inkscape:collect="always"
       style="color-interpolation-filters:sRGB"
       id="filter4316"
       x="-0.018229572"
       width="1.0364591"
       y="-1.4293152"
       height="3.8586304">
      <feGaussianBlur
         inkscape:collect="always"
         stdDeviation="2.9780378"
         id="feGaussianBlur4318" />
    </filter>
    <filter
       inkscape:collect="always"
       style="color-interpolation-filters:sRGB"
       id="filter4253"
       x="-0.041327659"
       width="1.0826553"
       y="-0.10945154"
       height="1.2189031">
      <feGaussianBlur
         inkscape:collect="always"
         stdDeviation="5.0487168"
         id="feGaussianBlur4255" />
    </filter>
    <filter
       inkscape:collect="always"
       style="color-interpolation-filters:sRGB"
       id="filter4348"
       x="-0.031008914"
       width="1.0620178"
       y="-0.042905997"
       height="1.085812">
      <feGaussianBlur
         inkscape:collect="always"
         stdDeviation="6.0556937"
         id="feGaussianBlur4350" />
    </filter>
    <filter
       inkscape:collect="always"
       style="color-interpolation-filters:sRGB"
       id="filter4358"
       x="-0.10336305"
       width="1.2067261"
       y="-0.14301997"
       height="1.2860399">
      <feGaussianBlur
         inkscape:collect="always"
         stdDeviation="20.185645"
         id="feGaussianBlur4360" />
    </filter>
  </defs>
  <sodipodi:namedview
     id="base"
     pagecolor="#ffffff"
     bordercolor="#666666"
     borderopacity="1.0"
     inkscape:pageopacity="0.0"
     inkscape:pageshadow="2"
     inkscape:zoom="0.5"
     inkscape:cx="160.91558"
     inkscape:cy="292.54966"
     inkscape:document-units="px"
     inkscape:current-layer="layer1"
     showgrid="false"
     fit-margin-top="0"
     fit-margin-left="0"
     fit-margin-right="0"
     fit-margin-bottom="0"
     inkscape:window-width="1536"
     inkscape:window-height="801"
     inkscape:window-x="-8"
     inkscape:window-y="-8"
     inkscape:window-maximized="1"
     showguides="false" />
  <metadata
     id="metadata7">
    <rdf:RDF>
      <cc:Work
         rdf:about="">
        <dc:format>image/svg+xml</dc:format>
        <dc:type
           rdf:resource="http://purl.org/dc/dcmitype/StillImage" />
        <dc:title></dc:title>
      </cc:Work>
    </rdf:RDF>
  </metadata>
  <g
     inkscape:label="Layer 1"
     inkscape:groupmode="layer"
     id="layer1"
     transform="translate(-13.486655,-283.9231)">
    <rect
       style="opacity:1;fill:#aa3a39;fill-opacity:1;fill-rule:evenodd;stroke:none;stroke-width:4.92447472;stroke-linecap:round;stroke-linejoin:round;stroke-miterlimit:4;stroke-dasharray:none;stroke-opacity:1"
       id="rect4147"
       width="486.99429"
       height="486.99429"
       x="81.781586"
       y="283.9231"
       ry="46.968964"
       inkscape:export-xdpi="23.655306"
       inkscape:export-ydpi="23.655306" />
    <path
       inkscape:connector-curvature="0"
       id="path4352"
       d="m 441.7734,360.06055 c -79.71794,0.96857 -159.51251,-0.71728 -239.18551,0.88281 -13.0748,3.71559 -16.35809,18.76889 -20.11664,29.99297 -30.20136,86.79349 -61.28059,173.29757 -90.857971,260.29805 -0.67243,14.79282 -2.61545,31.17518 5.50391,44.4121 7.995351,6.15519 18.295091,1.0361 27.269531,2.83094 141.79655,-0.16526 283.62158,0.36348 425.40038,-0.29578 9.886,-3.34351 9.5797,-15.7175 9.6953,-24.27539 1.5912,-24.39259 -11.9612,-46.04489 -18.2893,-68.84613 -27.5584,-78.82665 -53.7001,-158.23754 -82.5232,-236.59528 -3.6703,-5.48994 -10.3624,-8.58855 -16.8965,-8.40429 z"
       style="opacity:0.61100003;fill:#5b1e1d;fill-opacity:1;fill-rule:evenodd;stroke:none;stroke-width:1.24236357;stroke-linecap:round;stroke-linejoin:round;stroke-miterlimit:4;stroke-dasharray:none;stroke-opacity:1;filter:url(#filter4358)"
       sodipodi:nodetypes="ccccccccccc"
       transform="matrix(1.1025488,0,0,1.1025488,-33.341462,-56.29019)" />
    <path
       style="opacity:1;fill:#5b1e1d;fill-opacity:1;fill-rule:evenodd;stroke:none;stroke-width:1.24236357;stroke-linecap:round;stroke-linejoin:round;stroke-miterlimit:4;stroke-dasharray:none;stroke-opacity:1;filter:url(#filter4348)"
       d="m 441.78747,358.06166 c -79.71798,0.96857 -159.51255,-0.71728 -239.18555,0.88281 -13.0748,3.71559 -16.35809,18.76889 -20.11664,29.99297 -30.20136,86.79349 -61.28059,173.29757 -90.857968,260.29805 -0.672428,14.79282 -2.615451,31.17518 5.503907,44.4121 7.995351,6.15519 18.295091,1.0361 27.269531,2.83094 141.79655,-0.16526 283.62155,0.36348 425.40039,-0.29578 9.886,-3.34351 9.57971,-15.7175 9.69531,-24.27539 1.59119,-24.39259 -11.96118,-46.04489 -18.28932,-68.84613 -27.55842,-78.82665 -53.70013,-158.23754 -82.52318,-236.59528 -3.67028,-5.48994 -10.36246,-8.58855 -16.89648,-8.40429 z m -218.67774,54.86523 c 12.62175,6.5e-4 25.24349,10e-4 37.86524,0.002 -1.53906,14.92774 -3.07813,29.85547 -4.61719,44.78321 -16.88556,-0.19886 -34.9266,0.39623 -51.0957,-0.29492 5.78335,-14.7665 9.41104,-30.98003 17.53515,-44.49024 l 0.0957,-0.006 0.21679,0.006 z m 125.78907,0.002 c 1.11458,14.92774 2.22916,29.85547 3.34375,44.78321 -17.57878,0 -35.15756,0 -52.73633,0 1.11393,-14.92774 2.22786,-29.85547 3.34179,-44.78321 15.35026,0 30.70053,0 46.05079,0 z m 70.96875,0 c 4.72961,2.89491 3.39792,9.74203 6.42478,13.97795 3.69825,10.26842 7.3965,20.53684 11.09475,30.80526 -13.9987,0 -27.9974,0 -41.9961,0 -1.53906,-14.92774 -3.07812,-29.85547 -4.61718,-44.78321 9.69791,0 19.39583,0 29.09375,0 z m -166.68946,75.64063 c -2.08268,20.20312 -4.16536,40.40625 -6.24804,60.60937 -25.11263,0 -50.22526,0 -75.3379,0 7.37566,-20.20312 14.75131,-40.40625 22.12696,-60.60937 19.81966,0 39.63932,0 59.45898,0 z m 101.36914,0 c 1.50782,20.20312 3.01563,40.40625 4.52344,60.60937 -22.13086,0 -44.26172,0 -66.39258,0 1.50781,-20.20312 3.01563,-40.40625 4.52344,-60.60937 19.11523,0 38.23047,0 57.3457,0 z m 93.95508,0 c 7.27474,20.20312 14.54948,40.40625 21.82422,60.60937 -21.83594,0 -43.67187,0 -65.50781,0 -2.08268,-20.20312 -4.16537,-40.40625 -6.24805,-60.60937 16.64388,0 33.28776,0 49.93164,0 z m -205.46484,98.38086 c -1.69011,16.38542 -3.38021,32.77083 -5.07032,49.15625 -32.42988,-0.19136 -64.86612,0.50924 -97.29101,-0.31641 1.43787,-10.38866 7.71394,-19.33495 10.06644,-29.51313 2.3522,-6.44223 4.7044,-12.88447 7.05661,-19.32671 28.41276,0 56.82552,0 85.23828,0 z m 118.85547,0 c 1.2233,16.39388 2.44661,32.78776 3.66992,49.18164 -26.45899,0 -52.91797,0 -79.37695,0 1.2233,-16.39388 2.44661,-32.78776 3.66992,-49.18164 24.01237,0 48.02474,0 72.03711,0 z m 121.95703,0 c 5.48302,16.50401 12.8811,32.49388 17.24804,49.28516 -29.10458,-0.34967 -58.21115,0.0966 -87.3164,-0.0918 -1.69076,-16.39779 -3.38151,-32.79557 -5.07227,-49.19336 25.04688,0 50.09375,0 75.14063,0 z"
       id="path4281"
       inkscape:connector-curvature="0" />
    <g
       id="g4283"
       transform="translate(9.9554932,-7.8085876)">
      <path
         id="rect4172"
         d="m 197.70879,377.62518 c -6.25888,0 -10.17768,4.11677 -12.93555,11.98242 L 90.023249,659.84198 c -2.064161,5.88714 -0.949368,39.95312 3.46289,39.95312 l 444.701171,0 c 4.41225,0 4.00359,-29.51806 1.9629,-35.42383 L 444.85723,388.59393 c -2.4506,-7.09203 -5.15958,-10.96875 -11.33008,-10.96875 l -235.81836,0 z m 15.58594,38.61719 46.63281,0 -6.26562,60.7832 -70.02539,0 18.83984,-51.60352 c 2.22489,-6.09385 5.58396,-9.17968 10.81836,-9.17968 z m 72.2168,0 60.89453,0 4.53907,60.7832 -69.9707,0 4.53711,-60.7832 z m 86.48046,0 38.51954,0 c 5.16046,0 7.50063,2.90839 9.47851,8.40039 l 18.86523,52.38281 -60.59764,0 -6.26563,-60.7832 z m -193.78125,75.64062 73.91993,0 -7.89649,76.60938 -93.99414,0 27.9707,-76.60938 z m 101.6543,0 72.18945,0 5.71875,76.60938 -83.62695,0 5.71875,-76.60938 z m 99.92383,0 64.41601,0 27.58985,76.60938 -84.10937,0 -7.89648,-76.60938 z m 99.8418,98.36328 20.05273,55.6836 c 1.70667,4.52327 2.04746,9.51562 -1.64258,9.51562 l -101.39453,0 -6.71875,-65.18164 89.35547,0 c 0.1173,0 0.23127,-0.0139 0.34766,-0.0176 z m -337.33985,0.0176 99.69922,0 -6.71875,65.18164 -109.13867,0 c -3.69003,0 -4.56368,-8.42335 -2.89843,-12.98437 l 19.05663,-52.19727 z m 130.22852,0 86.88086,0 4.86523,65.18164 -96.61133,0 4.86524,-65.18164 z"
         style="opacity:1;fill:#bc9a58;fill-opacity:1;fill-rule:evenodd;stroke:none;stroke-width:1.24236357;stroke-linecap:round;stroke-linejoin:round;stroke-miterlimit:4;stroke-dasharray:none;stroke-opacity:1"
         inkscape:connector-curvature="0" />
      <path
         sodipodi:nodetypes="ccccc"
         transform="matrix(0.2915225,0,0,2.2693044,85.44331,-917.57881)"
         inkscape:connector-curvature="0"
         id="path4280"
         d="m 122.65234,693.74219 c -30.062022,2.44496 -28.84924,4.26882 0,5 l 373.27893,0 c 3.38081,0.0478 17.10188,-5.04781 13.72107,-5 z"
         style="color:#000000;font-style:normal;font-variant:normal;font-weight:normal;font-stretch:normal;font-size:medium;line-height:normal;font-family:sans-serif;text-indent:0;text-align:start;text-decoration:none;text-decoration-line:none;text-decoration-style:solid;text-decoration-color:#000000;letter-spacing:normal;word-spacing:normal;text-transform:none;direction:ltr;block-progression:tb;writing-mode:lr-tb;baseline-shift:baseline;text-anchor:start;white-space:normal;clip-rule:nonzero;display:inline;overflow:visible;visibility:visible;opacity:1;isolation:auto;mix-blend-mode:normal;color-interpolation:sRGB;color-interpolation-filters:linearRGB;solid-color:#000000;solid-opacity:1;fill:#feefd2;fill-opacity:1;fill-rule:evenodd;stroke:none;stroke-width:5;stroke-linecap:round;stroke-linejoin:round;stroke-miterlimit:4;stroke-dasharray:none;stroke-dashoffset:0;stroke-opacity:1;filter:url(#filter4316);color-rendering:auto;image-rendering:auto;shape-rendering:auto;text-rendering:auto;enable-background:accumulate" />
      <path
         sodipodi:nodetypes="ccccccccccccccccccccc"
         inkscape:connector-curvature="0"
         id="path4320"
         d="m 194.32211,382.77948 -25.62943,76.05664 -2.03389,34.64916 13.47578,-34.64916 27.2194,-66.32032 60.03226,0 -4.90231,66.32032 2.19164,34.64916 11.75435,-34.64916 4.62295,-66.32032 70.15788,0 5.53295,66.32032 8.14921,34.64916 3.48191,-34.64916 -4.54646,-66.32032 60.49372,0 21.31055,66.82032 14.21771,34.14916 -0.65077,-34.64916 -25.00857,-76.05664 z"
         style="color:#000000;font-style:normal;font-variant:normal;font-weight:normal;font-stretch:normal;font-size:medium;line-height:normal;font-family:sans-serif;text-indent:0;text-align:start;text-decoration:none;text-decoration-line:none;text-decoration-style:solid;text-decoration-color:#000000;letter-spacing:normal;word-spacing:normal;text-transform:none;direction:ltr;block-progression:tb;writing-mode:lr-tb;baseline-shift:baseline;text-anchor:start;white-space:normal;clip-rule:nonzero;display:inline;overflow:visible;visibility:visible;opacity:1;isolation:auto;mix-blend-mode:normal;color-interpolation:sRGB;color-interpolation-filters:linearRGB;solid-color:#000000;solid-opacity:1;fill:#feefd2;fill-opacity:1;fill-rule:evenodd;stroke:none;stroke-width:5;stroke-linecap:round;stroke-linejoin:round;stroke-miterlimit:4;stroke-dasharray:none;stroke-dashoffset:0;stroke-opacity:1;filter:url(#filter4253);color-rendering:auto;image-rendering:auto;shape-rendering:auto;text-rendering:auto;enable-background:accumulate" />
      <path
         sodipodi:nodetypes="ccccc"
         style="color:#000000;font-style:normal;font-variant:normal;font-weight:normal;font-stretch:normal;font-size:medium;line-height:normal;font-family:sans-serif;text-indent:0;text-align:start;text-decoration:none;text-decoration-line:none;text-decoration-style:solid;text-decoration-color:#000000;letter-spacing:normal;word-spacing:normal;text-transform:none;direction:ltr;block-progression:tb;writing-mode:lr-tb;baseline-shift:baseline;text-anchor:start;white-space:normal;clip-rule:nonzero;display:inline;overflow:visible;visibility:visible;opacity:1;isolation:auto;mix-blend-mode:normal;color-interpolation:sRGB;color-interpolation-filters:linearRGB;solid-color:#000000;solid-opacity:1;fill:#feefd2;fill-opacity:1;fill-rule:evenodd;stroke:none;stroke-width:5;stroke-linecap:round;stroke-linejoin:round;stroke-miterlimit:4;stroke-dasharray:none;stroke-dashoffset:0;stroke-opacity:1;filter:url(#filter4316);color-rendering:auto;image-rendering:auto;shape-rendering:auto;text-rendering:auto;enable-background:accumulate"
         d="m 138.79523,693.74219 c -3.3808,-0.0478 -19.5237,5.04781 -16.14289,5 l 378.03173,0 c 3.38081,0.0478 -16.3494,-5.04781 -19.73021,-5 z"
         id="path4224"
         inkscape:connector-curvature="0"
         transform="matrix(0.27876042,0,0,2.2857395,228.97807,-929.02162)" />
      <path
         sodipodi:nodetypes="ccccc"
         transform="matrix(0.28921391,0,0,2.2731586,359.67317,-920.26227)"
         inkscape:connector-curvature="0"
         id="path4226"
         d="m 122.65234,693.74219 c -3.38081,-0.0478 3.53449,5.04781 6.9153,5 l 380.0847,0 c 25.38515,0.20335 27.83007,-1.7816 0,-5 z"
         style="color:#000000;font-style:normal;font-variant:normal;font-weight:normal;font-stretch:normal;font-size:medium;line-height:normal;font-family:sans-serif;text-indent:0;text-align:start;text-decoration:none;text-decoration-line:none;text-decoration-style:solid;text-decoration-color:#000000;letter-spacing:normal;word-spacing:normal;text-transform:none;direction:ltr;block-progression:tb;writing-mode:lr-tb;baseline-shift:baseline;text-anchor:start;white-space:normal;clip-rule:nonzero;display:inline;overflow:visible;visibility:visible;opacity:1;isolation:auto;mix-blend-mode:normal;color-interpolation:sRGB;color-interpolation-filters:linearRGB;solid-color:#000000;solid-opacity:1;fill:#feefd2;fill-opacity:1;fill-rule:evenodd;stroke:none;stroke-width:5;stroke-linecap:round;stroke-linejoin:round;stroke-miterlimit:4;stroke-dasharray:none;stroke-dashoffset:0;stroke-opacity:1;filter:url(#filter4316);color-rendering:auto;image-rendering:auto;shape-rendering:auto;text-rendering:auto;enable-background:accumulate" />
      <path
         sodipodi:nodetypes="ccccc"
         style="color:#000000;font-style:normal;font-variant:normal;font-weight:normal;font-stretch:normal;font-size:medium;line-height:normal;font-family:sans-serif;text-indent:0;text-align:start;text-decoration:none;text-decoration-line:none;text-decoration-style:solid;text-decoration-color:#000000;letter-spacing:normal;word-spacing:normal;text-transform:none;direction:ltr;block-progression:tb;writing-mode:lr-tb;baseline-shift:baseline;text-anchor:start;white-space:normal;clip-rule:nonzero;display:inline;overflow:visible;visibility:visible;opacity:1;isolation:auto;mix-blend-mode:normal;color-interpolation:sRGB;color-interpolation-filters:linearRGB;solid-color:#000000;solid-opacity:1;fill:#feefd2;fill-opacity:1;fill-rule:evenodd;stroke:none;stroke-width:5;stroke-linecap:round;stroke-linejoin:round;stroke-miterlimit:4;stroke-dasharray:none;stroke-dashoffset:0;stroke-opacity:1;filter:url(#filter4316);color-rendering:auto;image-rendering:auto;shape-rendering:auto;text-rendering:auto;enable-background:accumulate"
         d="m 122.65234,693.74219 c -3.38081,-0.0478 -20.35903,5.04781 -16.97822,5 l 403.97822,0 c 3.38081,0.0478 3.38081,-5.04781 0,-5 z"
         id="path4228"
         inkscape:connector-curvature="0"
         transform="matrix(0.24988726,0,0,1.2044967,118.10352,-266.71479)" />
      <path
         sodipodi:nodetypes="ccccc"
         transform="matrix(0.23894786,0,0,1.21322,241.13866,-272.78833)"
         inkscape:connector-curvature="0"
         id="path4230"
         d="m 137.4486,693.74219 c -3.38081,-0.0478 -18.17707,5.04781 -14.79626,5 l 387,0 c 3.38081,0.0478 -17.33395,-5.04781 -20.71476,-5 z"
         style="color:#000000;font-style:normal;font-variant:normal;font-weight:normal;font-stretch:normal;font-size:medium;line-height:normal;font-family:sans-serif;text-indent:0;text-align:start;text-decoration:none;text-decoration-line:none;text-decoration-style:solid;text-decoration-color:#000000;letter-spacing:normal;word-spacing:normal;text-transform:none;direction:ltr;block-progression:tb;writing-mode:lr-tb;baseline-shift:baseline;text-anchor:start;white-space:normal;clip-rule:nonzero;display:inline;overflow:visible;visibility:visible;opacity:1;isolation:auto;mix-blend-mode:normal;color-interpolation:sRGB;color-interpolation-filters:linearRGB;solid-color:#000000;solid-opacity:1;fill:#feefd2;fill-opacity:1;fill-rule:evenodd;stroke:none;stroke-width:5;stroke-linecap:round;stroke-linejoin:round;stroke-miterlimit:4;stroke-dasharray:none;stroke-dashoffset:0;stroke-opacity:1;filter:url(#filter4316);color-rendering:auto;image-rendering:auto;shape-rendering:auto;text-rendering:auto;enable-background:accumulate" />
      <path
         sodipodi:nodetypes="ccccc"
         style="color:#000000;font-style:normal;font-variant:normal;font-weight:normal;font-stretch:normal;font-size:medium;line-height:normal;font-family:sans-serif;text-indent:0;text-align:start;text-decoration:none;text-decoration-line:none;text-decoration-style:solid;text-decoration-color:#000000;letter-spacing:normal;word-spacing:normal;text-transform:none;direction:ltr;block-progression:tb;writing-mode:lr-tb;baseline-shift:baseline;text-anchor:start;white-space:normal;clip-rule:nonzero;display:inline;overflow:visible;visibility:visible;opacity:1;isolation:auto;mix-blend-mode:normal;color-interpolation:sRGB;color-interpolation-filters:linearRGB;solid-color:#000000;solid-opacity:1;fill:#feefd2;fill-opacity:1;fill-rule:evenodd;stroke:none;stroke-width:5;stroke-linecap:round;stroke-linejoin:round;stroke-miterlimit:4;stroke-dasharray:none;stroke-dashoffset:0;stroke-opacity:1;filter:url(#filter4316);color-rendering:auto;image-rendering:auto;shape-rendering:auto;text-rendering:auto;enable-background:accumulate"
         d="m 138.33994,693.74219 c -3.38081,-0.0478 8.55687,5 8.55687,5 l 362.75553,0 c 3.38081,0.0478 -20.86366,-5.04781 -24.24447,-5 z"
         id="path4232"
         inkscape:connector-curvature="0"
         transform="matrix(0.24790838,0,0,1.2065424,353.16787,-268.13906)" />
      <path
         sodipodi:nodetypes="cccsc"
         transform="matrix(0.19791466,0,0,1.0580458,154.37275,-256.74951)"
         inkscape:connector-curvature="0"
         id="path4234"
         d="m 146.65258,693.74219 c -3.3808,-0.0478 -27.38105,5.04781 -24.00024,5 l 387,0 c 3.38081,0.0478 3.39046,-5 0,-5 z"
         style="color:#000000;font-style:normal;font-variant:normal;font-weight:normal;font-stretch:normal;font-size:medium;line-height:normal;font-family:sans-serif;text-indent:0;text-align:start;text-decoration:none;text-decoration-line:none;text-decoration-style:solid;text-decoration-color:#000000;letter-spacing:normal;word-spacing:normal;text-transform:none;direction:ltr;block-progression:tb;writing-mode:lr-tb;baseline-shift:baseline;text-anchor:start;white-space:normal;clip-rule:nonzero;display:inline;overflow:visible;visibility:visible;opacity:1;isolation:auto;mix-blend-mode:normal;color-interpolation:sRGB;color-interpolation-filters:linearRGB;solid-color:#000000;solid-opacity:1;fill:#feefd2;fill-opacity:1;fill-rule:evenodd;stroke:none;stroke-width:5;stroke-linecap:round;stroke-linejoin:round;stroke-miterlimit:4;stroke-dasharray:none;stroke-dashoffset:0;stroke-opacity:1;filter:url(#filter4316);color-rendering:auto;image-rendering:auto;shape-rendering:auto;text-rendering:auto;enable-background:accumulate" />
      <path
         sodipodi:nodetypes="ccccc"
         style="color:#000000;font-style:normal;font-variant:normal;font-weight:normal;font-stretch:normal;font-size:medium;line-height:normal;font-family:sans-serif;text-indent:0;text-align:start;text-decoration:none;text-decoration-line:none;text-decoration-style:solid;text-decoration-color:#000000;letter-spacing:normal;word-spacing:normal;text-transform:none;direction:ltr;block-progression:tb;writing-mode:lr-tb;baseline-shift:baseline;text-anchor:start;white-space:normal;clip-rule:nonzero;display:inline;overflow:visible;visibility:visible;opacity:1;isolation:auto;mix-blend-mode:normal;color-interpolation:sRGB;color-interpolation-filters:linearRGB;solid-color:#000000;solid-opacity:1;fill:#feefd2;fill-opacity:1;fill-rule:evenodd;stroke:none;stroke-width:5;stroke-linecap:round;stroke-linejoin:round;stroke-miterlimit:4;stroke-dasharray:none;stroke-dashoffset:0;stroke-opacity:1;filter:url(#filter4316);color-rendering:auto;image-rendering:auto;shape-rendering:auto;text-rendering:auto;enable-background:accumulate"
         d="m 150.39335,693.74219 c -3.3808,-0.0478 -12.62781,5.04781 -9.247,5 l 389.642,0 c 3.38081,0.0478 -5.8662,-5.04781 -9.247,-5 z"
         id="path4236"
         inkscape:connector-curvature="0"
         transform="matrix(0.18925048,0,0,1.0657085,251.81851,-262.08466)" />
      <path
         sodipodi:nodetypes="ccccc"
         transform="matrix(0.19634735,0,0,1.0598429,340.54742,-258.00072)"
         inkscape:connector-curvature="0"
         id="path4238"
         d="m 186.31503,693.74219 c -3.38081,-0.0478 5.53196,5.04781 8.91277,5 l 328.43033,0 c 3.38081,0.0478 -13.17149,-5.04781 -16.5523,-5 z"
         style="color:#000000;font-style:normal;font-variant:normal;font-weight:normal;font-stretch:normal;font-size:medium;line-height:normal;font-family:sans-serif;text-indent:0;text-align:start;text-decoration:none;text-decoration-line:none;text-decoration-style:solid;text-decoration-color:#000000;letter-spacing:normal;word-spacing:normal;text-transform:none;direction:ltr;block-progression:tb;writing-mode:lr-tb;baseline-shift:baseline;text-anchor:start;white-space:normal;clip-rule:nonzero;display:inline;overflow:visible;visibility:visible;opacity:1;isolation:auto;mix-blend-mode:normal;color-interpolation:sRGB;color-interpolation-filters:linearRGB;solid-color:#000000;solid-opacity:1;fill:#feefd2;fill-opacity:1;fill-rule:evenodd;stroke:none;stroke-width:5;stroke-linecap:round;stroke-linejoin:round;stroke-miterlimit:4;stroke-dasharray:none;stroke-dashoffset:0;stroke-opacity:1;filter:url(#filter4316);color-rendering:auto;image-rendering:auto;shape-rendering:auto;text-rendering:auto;enable-background:accumulate" />
    </g>
  </g>
</svg>
