<?xml version="1.0" encoding="UTF-8" standalone="no"?>
<!-- Created with Inkscape (http://www.inkscape.org/) -->

<svg
   xmlns:dc="http://purl.org/dc/elements/1.1/"
   xmlns:cc="http://creativecommons.org/ns#"
   xmlns:rdf="http://www.w3.org/1999/02/22-rdf-syntax-ns#"
   xmlns:svg="http://www.w3.org/2000/svg"
   xmlns="http://www.w3.org/2000/svg"
   xmlns:xlink="http://www.w3.org/1999/xlink"
   xmlns:sodipodi="http://sodipodi.sourceforge.net/DTD/sodipodi-0.dtd"
   xmlns:inkscape="http://www.inkscape.org/namespaces/inkscape"
   width="137.44061mm"
   height="137.44061mm"
   viewBox="0 0 486.99429 486.99429"
   id="svg2"
   version="1.1"
   inkscape:version="0.92.1 r15371"
   sodipodi:docname="triad.svg"
   inkscape:export-filename="D:\Programmes\xamp\htdocs\melodysmaps\icons\red\triad.png"
   inkscape:export-xdpi="5.9138269"
   inkscape:export-ydpi="5.9138269">
  <defs
     id="defs4">
    <linearGradient
       inkscape:collect="always"
       id="linearGradient4178">
      <stop
         style="stop-color:#fdf5ce;stop-opacity:1"
         offset="0"
         id="stop4180" />
      <stop
         id="stop4188"
         offset="0.14971778"
         style="stop-color:#e4d5a7;stop-opacity:1;" />
      <stop
         id="stop4186"
         offset="0.51921779"
         style="stop-color:#947e45;stop-opacity:1" />
      <stop
         style="stop-color:#b19a5a;stop-opacity:1"
         offset="1"
         id="stop4182" />
    </linearGradient>
    <clipPath
       clipPathUnits="userSpaceOnUse"
       id="clipPath4306">
      <path
         clip-path="none"
         sodipodi:nodetypes="ccccscssssscssccccccccccccsscssssscscccccscccsssscccsssc"
         inkscape:connector-curvature="0"
         id="path4308"
         d="m 254.0241,799.59655 c 5.3033,20.85965 13.26156,38.30242 33.06055,59.51562 l 14.93945,1.48438 38.87891,39.64648 c 0,0 5.28862,15.44438 -2.64649,17.05078 -7.93511,1.6064 -20.58594,-23.33203 -20.58594,-23.33203 -8.48528,12.02082 0.0756,45.45124 -6.18164,69.70703 -6.25729,24.25579 -26.51423,45.22809 -33.69726,73.44329 -7.18303,28.2153 -7.57047,67.6717 -0.23242,68.9004 8.11867,1.3595 18.02519,1.5034 22.2832,8.2305 4.25801,6.7272 4.01083,18.126 -5.06055,20.1719 -9.07138,2.0459 -24.95028,7.6867 -15.05078,33.4961 0,0 1.923,-10.1056 9.92969,-13.7891 8.00669,-3.6835 22.80401,3.5568 36.8789,-7.8672 14.07491,-11.4239 5.47416,-31.1224 9.7168,-36.7793 l 107,-104.1816 99.51758,99.3027 9.5,27.75 29.01562,26.6719 c 13,-0.75 10.98438,-21.1719 10.98438,-21.1719 l 0.5918,-0.7304 c 0,0 20.42187,2.0156 21.17187,-10.9844 l -26.67187,-29.0156 -27.75,-9.5 -99.30274,-99.5176 104.18164,-107 c 5.65685,-4.24264 25.35538,4.3581 36.7793,-9.7168 11.42392,-14.07489 4.18368,-28.87221 7.86719,-36.8789 3.68351,-8.00669 13.78906,-9.92969 13.78906,-9.92969 -25.80939,-9.8995 -31.4502,5.9794 -33.49609,15.05078 -2.04589,9.07138 -13.44474,9.31856 -20.17188,5.06055 -6.72715,-4.25801 -6.87105,-14.16453 -8.23047,-22.2832 -1.22871,-7.33805 -40.68518,-6.95061 -68.90039,0.23242 -28.2152,7.18303 -49.18757,27.43997 -73.44336,33.69726 -24.25579,6.25724 -57.68621,-2.30364 -69.70703,6.18164 0,0 24.93843,12.65083 23.33203,20.58594 -1.6064,7.93511 -17.05078,2.64649 -17.05078,2.64649 l -39.64648,-38.87891 -1.48438,-14.93945 c -21.2132,-19.79899 -38.65597,-27.75725 -59.51562,-33.06055 -0.65625,-0.1875 -0.8418,0.0117 -0.5918,0.73047 z m 257.55469,51.69531 c 14.75529,-0.18922 31.85842,2.85711 50.45312,12.06055 L 448.54168,974.72155 392.32683,918.86022 c 2.12132,-9.89949 14.05075,-4.00782 26.16211,-7.42578 12.11134,-3.41795 -0.0496,-9.03099 7.42578,-19.44531 7.47544,-10.41432 33.96317,-27.8309 52.67969,-34.64844 8.77337,-3.19572 19.965,-5.88187 32.98438,-6.04883 z m -137.56055,86.01563 55.86133,56.21484 -111.36914,113.49017 c -17.32411,-35.0017 -12.82925,-64.7209 -6.01172,-83.4375 6.81754,-18.7165 24.23412,-45.20419 34.64844,-52.67962 10.41432,-7.47543 16.02736,4.68555 19.44531,-7.42578 3.41796,-12.11136 -2.47371,-24.04079 7.42578,-26.16211 z"
         style="fill:#d9ad5c;fill-opacity:1;fill-rule:evenodd;stroke:none;stroke-width:5;stroke-linecap:round;stroke-linejoin:round;stroke-miterlimit:4;stroke-dasharray:none;stroke-opacity:1" />
    </clipPath>
    <radialGradient
       inkscape:collect="always"
       xlink:href="#linearGradient4178"
       id="radialGradient4570"
       gradientUnits="userSpaceOnUse"
       gradientTransform="matrix(1,0,0,1.2099514,2.3678876e-6,-112.14049)"
       cx="166.54718"
       cy="413.59171"
       fx="166.54718"
       fy="413.59171"
       r="173.95029" />
    <filter
       inkscape:collect="always"
       style="color-interpolation-filters:sRGB"
       id="filter4582"
       x="-0.040300883"
       width="1.0806018"
       y="-0.032528572"
       height="1.0650572">
      <feGaussianBlur
         inkscape:collect="always"
         stdDeviation="1.7789063"
         id="feGaussianBlur4584" />
    </filter>
    <filter
       inkscape:collect="always"
       style="color-interpolation-filters:sRGB"
       id="filter4598"
       x="-0.040300883"
       width="1.0806018"
       y="-0.032528572"
       height="1.0650572">
      <feGaussianBlur
         inkscape:collect="always"
         stdDeviation="1.7789063"
         id="feGaussianBlur4600" />
    </filter>
    <radialGradient
       inkscape:collect="always"
       xlink:href="#linearGradient4178"
       id="radialGradient4623"
       gradientUnits="userSpaceOnUse"
       gradientTransform="matrix(1,0,0,1.2099514,2.3678876e-6,-112.14049)"
       cx="166.54718"
       cy="413.59171"
       fx="166.54718"
       fy="413.59171"
       r="173.95029" />
    <radialGradient
       inkscape:collect="always"
       xlink:href="#linearGradient4178"
       id="radialGradient4625"
       gradientUnits="userSpaceOnUse"
       gradientTransform="matrix(1,0,0,1.2099514,0,-112.14049)"
       cx="288.5231"
       cy="534.1261"
       fx="288.5231"
       fy="534.1261"
       r="173.95029" />
    <radialGradient
       inkscape:collect="always"
       xlink:href="#linearGradient4178"
       id="radialGradient4635"
       gradientUnits="userSpaceOnUse"
       gradientTransform="matrix(1,0,0,1.2099514,2.3678876e-6,-112.14049)"
       cx="166.54718"
       cy="413.59171"
       fx="166.54718"
       fy="413.59171"
       r="173.95029" />
    <radialGradient
       inkscape:collect="always"
       xlink:href="#linearGradient4178"
       id="radialGradient4637"
       gradientUnits="userSpaceOnUse"
       gradientTransform="matrix(1,0,0,1.2099514,0,-112.14049)"
       cx="288.5231"
       cy="534.1261"
       fx="288.5231"
       fy="534.1261"
       r="173.95029" />
    <radialGradient
       inkscape:collect="always"
       xlink:href="#linearGradient4178"
       id="radialGradient4655"
       gradientUnits="userSpaceOnUse"
       gradientTransform="matrix(1,0,0,1.2099514,2.3678876e-6,-112.14049)"
       cx="166.54718"
       cy="413.59171"
       fx="166.54718"
       fy="413.59171"
       r="173.95029" />
    <radialGradient
       inkscape:collect="always"
       xlink:href="#linearGradient4178"
       id="radialGradient4657"
       gradientUnits="userSpaceOnUse"
       gradientTransform="matrix(1,0,0,1.2099514,0,-112.14049)"
       cx="288.5231"
       cy="534.1261"
       fx="288.5231"
       fy="534.1261"
       r="173.95029" />
    <radialGradient
       inkscape:collect="always"
       xlink:href="#linearGradient4178"
       id="radialGradient4659"
       gradientUnits="userSpaceOnUse"
       gradientTransform="matrix(1,0,0,1.2099514,2.3678876e-6,-112.14049)"
       cx="166.54718"
       cy="413.59171"
       fx="166.54718"
       fy="413.59171"
       r="173.95029" />
    <radialGradient
       inkscape:collect="always"
       xlink:href="#linearGradient4178"
       id="radialGradient4661"
       gradientUnits="userSpaceOnUse"
       gradientTransform="matrix(1,0,0,1.2099514,0,-112.14049)"
       cx="288.5231"
       cy="534.1261"
       fx="288.5231"
       fy="534.1261"
       r="173.95029" />
    <radialGradient
       inkscape:collect="always"
       xlink:href="#linearGradient4178"
       id="radialGradient4671"
       gradientUnits="userSpaceOnUse"
       gradientTransform="matrix(1,0,0,1.2099514,2.3678876e-6,-112.14049)"
       cx="166.54718"
       cy="413.59171"
       fx="166.54718"
       fy="413.59171"
       r="173.95029" />
    <radialGradient
       inkscape:collect="always"
       xlink:href="#linearGradient4178"
       id="radialGradient4673"
       gradientUnits="userSpaceOnUse"
       gradientTransform="matrix(1,0,0,1.2099514,0,-112.14049)"
       cx="288.5231"
       cy="534.1261"
       fx="288.5231"
       fy="534.1261"
       r="173.95029" />
    <radialGradient
       inkscape:collect="always"
       xlink:href="#linearGradient4178"
       id="radialGradient4683"
       gradientUnits="userSpaceOnUse"
       gradientTransform="matrix(1,0,0,1.2099514,2.3678876e-6,-112.14049)"
       cx="166.54718"
       cy="413.59171"
       fx="166.54718"
       fy="413.59171"
       r="173.95029" />
    <radialGradient
       inkscape:collect="always"
       xlink:href="#linearGradient4178"
       id="radialGradient4685"
       gradientUnits="userSpaceOnUse"
       gradientTransform="matrix(1,0,0,1.2099514,0,-112.14049)"
       cx="288.5231"
       cy="534.1261"
       fx="288.5231"
       fy="534.1261"
       r="173.95029" />
    <radialGradient
       inkscape:collect="always"
       xlink:href="#linearGradient4178"
       id="radialGradient4695"
       gradientUnits="userSpaceOnUse"
       gradientTransform="matrix(1,0,0,1.2099514,2.3678876e-6,-112.14049)"
       cx="166.54718"
       cy="413.59171"
       fx="166.54718"
       fy="413.59171"
       r="173.95029" />
    <radialGradient
       inkscape:collect="always"
       xlink:href="#linearGradient4178"
       id="radialGradient4697"
       gradientUnits="userSpaceOnUse"
       gradientTransform="matrix(1,0,0,1.2099514,0,-112.14049)"
       cx="288.5231"
       cy="534.1261"
       fx="288.5231"
       fy="534.1261"
       r="173.95029" />
    <radialGradient
       inkscape:collect="always"
       xlink:href="#linearGradient4178"
       id="radialGradient4707"
       gradientUnits="userSpaceOnUse"
       gradientTransform="matrix(1,0,0,1.2099514,2.3678876e-6,-112.14049)"
       cx="166.54718"
       cy="413.59171"
       fx="166.54718"
       fy="413.59171"
       r="173.95029" />
    <radialGradient
       inkscape:collect="always"
       xlink:href="#linearGradient4178"
       id="radialGradient4709"
       gradientUnits="userSpaceOnUse"
       gradientTransform="matrix(1,0,0,1.2099514,0,-112.14049)"
       cx="288.5231"
       cy="534.1261"
       fx="288.5231"
       fy="534.1261"
       r="173.95029" />
    <radialGradient
       inkscape:collect="always"
       xlink:href="#linearGradient4178"
       id="radialGradient4711"
       gradientUnits="userSpaceOnUse"
       gradientTransform="matrix(1,0,0,1.2099514,0,-112.14049)"
       cx="288.5231"
       cy="534.1261"
       fx="288.5231"
       fy="534.1261"
       r="173.95029" />
  </defs>
  <sodipodi:namedview
     id="base"
     pagecolor="#ffffff"
     bordercolor="#666666"
     borderopacity="1.0"
     inkscape:pageopacity="0.0"
     inkscape:pageshadow="2"
     inkscape:zoom="0.35355339"
     inkscape:cx="-1045.3692"
     inkscape:cy="325.95451"
     inkscape:document-units="px"
     inkscape:current-layer="layer1"
     showgrid="false"
     fit-margin-top="0"
     fit-margin-left="0"
     fit-margin-right="0"
     fit-margin-bottom="0"
     inkscape:window-width="1920"
     inkscape:window-height="1017"
     inkscape:window-x="-8"
     inkscape:window-y="-8"
     inkscape:window-maximized="1"
     inkscape:snap-global="false" />
  <metadata
     id="metadata7">
    <rdf:RDF>
      <cc:Work
         rdf:about="">
        <dc:format>image/svg+xml</dc:format>
        <dc:type
           rdf:resource="http://purl.org/dc/dcmitype/StillImage" />
        <dc:title></dc:title>
      </cc:Work>
    </rdf:RDF>
  </metadata>
  <g
     inkscape:label="Layer 1"
     inkscape:groupmode="layer"
     id="layer1"
     transform="translate(-76.786812,-283.45682)">
    <rect
       style="opacity:1;fill:#aa3a39;fill-opacity:1;fill-rule:evenodd;stroke:none;stroke-width:4.92447472;stroke-linecap:round;stroke-linejoin:round;stroke-miterlimit:4;stroke-dasharray:none;stroke-opacity:1"
       id="rect4147"
       width="486.99429"
       height="486.99429"
       x="76.786812"
       y="283.45682"
       ry="46.968964"
       inkscape:export-xdpi="23.655306"
       inkscape:export-ydpi="23.655306" />
    <g
       id="g4859"
       transform="translate(11.718739,-0.46876135)">
      <g
         id="g4613"
         style="fill:url(#radialGradient4711);fill-opacity:1"
         transform="translate(14.929903,-11.856966)">
        <path
           inkscape:connector-curvature="0"
           id="rect4586"
           d="m 205.83403,315.2469 c -28.43301,1.32185 -57.19422,-1.27668 -85.55274,1.4043 -11.97783,4.13957 -15.84227,18.71316 -13.64488,30.07613 0.56548,34.16788 -1.45163,68.48366 1.16051,102.55473 4.2884,12.33772 19.43874,15.53488 30.96275,13.44069 25.74868,-0.67663 51.74783,1.87954 77.32631,-1.54616 12.07399,-4.98628 14.16014,-20.05613 12.40188,-31.50973 -0.55573,-33.53843 1.46739,-67.25355 -1.17336,-100.67777 -3.0501,-8.73241 -12.52577,-13.92901 -21.48047,-13.74219 z"
           style="opacity:1;fill:#75221c;fill-opacity:1;fill-rule:evenodd;stroke:none;stroke-width:1.19236875;stroke-linecap:round;stroke-linejoin:round;stroke-miterlimit:4;stroke-dasharray:none;stroke-opacity:1;filter:url(#filter4598)" />
        <rect
           inkscape:export-ydpi="23.655306"
           inkscape:export-xdpi="23.655306"
           ry="12.658623"
           y="323.65469"
           x="114.57281"
           height="131.25"
           width="105.9375"
           id="rect4512"
           style="opacity:1;fill:url(#radialGradient4570);fill-opacity:1;fill-rule:evenodd;stroke:none;stroke-width:1.19236875;stroke-linecap:round;stroke-linejoin:round;stroke-miterlimit:4;stroke-dasharray:none;stroke-opacity:1" />
        <rect
           style="opacity:1;fill:none;fill-opacity:1;fill-rule:evenodd;stroke:#fdf5ce;stroke-width:4.18110228;stroke-linecap:round;stroke-linejoin:round;stroke-miterlimit:4;stroke-dasharray:none;stroke-opacity:1;filter:url(#filter4582)"
           id="rect4572"
           width="105.9375"
           height="131.25"
           x="114.57281"
           y="323.65469"
           ry="12.658623"
           inkscape:export-xdpi="23.655306"
           inkscape:export-ydpi="23.655306" />
      </g>
      <g
         id="g4621"
         style="fill:url(#radialGradient4625);fill-opacity:1"
         transform="translate(141.02365,-11.856966)">
        <path
           style="opacity:1;fill:#75221c;fill-opacity:1;fill-rule:evenodd;stroke:none;stroke-width:1.19236875;stroke-linecap:round;stroke-linejoin:round;stroke-miterlimit:4;stroke-dasharray:none;stroke-opacity:1;filter:url(#filter4598)"
           d="m 205.83403,315.2469 c -28.43301,1.32185 -57.19422,-1.27668 -85.55274,1.4043 -11.97783,4.13957 -15.84227,18.71316 -13.64488,30.07613 0.56548,34.16788 -1.45163,68.48366 1.16051,102.55473 4.2884,12.33772 19.43874,15.53488 30.96275,13.44069 25.74868,-0.67663 51.74783,1.87954 77.32631,-1.54616 12.07399,-4.98628 14.16014,-20.05613 12.40188,-31.50973 -0.55573,-33.53843 1.46739,-67.25355 -1.17336,-100.67777 -3.0501,-8.73241 -12.52577,-13.92901 -21.48047,-13.74219 z"
           id="path4615"
           inkscape:connector-curvature="0" />
        <rect
           style="opacity:1;fill:url(#radialGradient4623);fill-opacity:1;fill-rule:evenodd;stroke:none;stroke-width:1.19236875;stroke-linecap:round;stroke-linejoin:round;stroke-miterlimit:4;stroke-dasharray:none;stroke-opacity:1"
           id="rect4617"
           width="105.9375"
           height="131.25"
           x="114.57281"
           y="323.65469"
           ry="12.658623"
           inkscape:export-xdpi="23.655306"
           inkscape:export-ydpi="23.655306" />
        <rect
           inkscape:export-ydpi="23.655306"
           inkscape:export-xdpi="23.655306"
           ry="12.658623"
           y="323.65469"
           x="114.57281"
           height="131.25"
           width="105.9375"
           id="rect4619"
           style="opacity:1;fill:none;fill-opacity:1;fill-rule:evenodd;stroke:#fdf5ce;stroke-width:4.18110228;stroke-linecap:round;stroke-linejoin:round;stroke-miterlimit:4;stroke-dasharray:none;stroke-opacity:1;filter:url(#filter4582)" />
      </g>
      <g
         transform="translate(267.11741,-11.856966)"
         style="fill:url(#radialGradient4637);fill-opacity:1"
         id="g4633">
        <path
           inkscape:connector-curvature="0"
           id="path4627"
           d="m 205.83403,315.2469 c -28.43301,1.32185 -57.19422,-1.27668 -85.55274,1.4043 -11.97783,4.13957 -15.84227,18.71316 -13.64488,30.07613 0.56548,34.16788 -1.45163,68.48366 1.16051,102.55473 4.2884,12.33772 19.43874,15.53488 30.96275,13.44069 25.74868,-0.67663 51.74783,1.87954 77.32631,-1.54616 12.07399,-4.98628 14.16014,-20.05613 12.40188,-31.50973 -0.55573,-33.53843 1.46739,-67.25355 -1.17336,-100.67777 -3.0501,-8.73241 -12.52577,-13.92901 -21.48047,-13.74219 z"
           style="opacity:1;fill:#75221c;fill-opacity:1;fill-rule:evenodd;stroke:none;stroke-width:1.19236875;stroke-linecap:round;stroke-linejoin:round;stroke-miterlimit:4;stroke-dasharray:none;stroke-opacity:1;filter:url(#filter4598)" />
        <rect
           inkscape:export-ydpi="23.655306"
           inkscape:export-xdpi="23.655306"
           ry="12.658623"
           y="323.65469"
           x="114.57281"
           height="131.25"
           width="105.9375"
           id="rect4629"
           style="opacity:1;fill:url(#radialGradient4635);fill-opacity:1;fill-rule:evenodd;stroke:none;stroke-width:1.19236875;stroke-linecap:round;stroke-linejoin:round;stroke-miterlimit:4;stroke-dasharray:none;stroke-opacity:1" />
        <rect
           style="opacity:1;fill:none;fill-opacity:1;fill-rule:evenodd;stroke:#fdf5ce;stroke-width:4.18110228;stroke-linecap:round;stroke-linejoin:round;stroke-miterlimit:4;stroke-dasharray:none;stroke-opacity:1;filter:url(#filter4582)"
           id="rect4631"
           width="105.9375"
           height="131.25"
           x="114.57281"
           y="323.65469"
           ry="12.658623"
           inkscape:export-xdpi="23.655306"
           inkscape:export-ydpi="23.655306" />
      </g>
      <g
         id="g4645"
         style="fill:url(#radialGradient4661);fill-opacity:1"
         transform="translate(141.02365,138.14303)">
        <path
           style="opacity:1;fill:#75221c;fill-opacity:1;fill-rule:evenodd;stroke:none;stroke-width:1.19236875;stroke-linecap:round;stroke-linejoin:round;stroke-miterlimit:4;stroke-dasharray:none;stroke-opacity:1;filter:url(#filter4598)"
           d="m 205.83403,315.2469 c -28.43301,1.32185 -57.19422,-1.27668 -85.55274,1.4043 -11.97783,4.13957 -15.84227,18.71316 -13.64488,30.07613 0.56548,34.16788 -1.45163,68.48366 1.16051,102.55473 4.2884,12.33772 19.43874,15.53488 30.96275,13.44069 25.74868,-0.67663 51.74783,1.87954 77.32631,-1.54616 12.07399,-4.98628 14.16014,-20.05613 12.40188,-31.50973 -0.55573,-33.53843 1.46739,-67.25355 -1.17336,-100.67777 -3.0501,-8.73241 -12.52577,-13.92901 -21.48047,-13.74219 z"
           id="path4639"
           inkscape:connector-curvature="0" />
        <rect
           style="opacity:1;fill:url(#radialGradient4659);fill-opacity:1;fill-rule:evenodd;stroke:none;stroke-width:1.19236875;stroke-linecap:round;stroke-linejoin:round;stroke-miterlimit:4;stroke-dasharray:none;stroke-opacity:1"
           id="rect4641"
           width="105.9375"
           height="131.25"
           x="114.57281"
           y="323.65469"
           ry="12.658623"
           inkscape:export-xdpi="23.655306"
           inkscape:export-ydpi="23.655306" />
        <rect
           inkscape:export-ydpi="23.655306"
           inkscape:export-xdpi="23.655306"
           ry="12.658623"
           y="323.65469"
           x="114.57281"
           height="131.25"
           width="105.9375"
           id="rect4643"
           style="opacity:1;fill:none;fill-opacity:1;fill-rule:evenodd;stroke:#fdf5ce;stroke-width:4.18110228;stroke-linecap:round;stroke-linejoin:round;stroke-miterlimit:4;stroke-dasharray:none;stroke-opacity:1;filter:url(#filter4582)" />
      </g>
      <g
         transform="translate(15.867399,138.14303)"
         style="fill:url(#radialGradient4657);fill-opacity:1"
         id="g4653">
        <path
           inkscape:connector-curvature="0"
           id="path4647"
           d="m 205.83403,315.2469 c -28.43301,1.32185 -57.19422,-1.27668 -85.55274,1.4043 -11.97783,4.13957 -15.84227,18.71316 -13.64488,30.07613 0.56548,34.16788 -1.45163,68.48366 1.16051,102.55473 4.2884,12.33772 19.43874,15.53488 30.96275,13.44069 25.74868,-0.67663 51.74783,1.87954 77.32631,-1.54616 12.07399,-4.98628 14.16014,-20.05613 12.40188,-31.50973 -0.55573,-33.53843 1.46739,-67.25355 -1.17336,-100.67777 -3.0501,-8.73241 -12.52577,-13.92901 -21.48047,-13.74219 z"
           style="opacity:1;fill:#75221c;fill-opacity:1;fill-rule:evenodd;stroke:none;stroke-width:1.19236875;stroke-linecap:round;stroke-linejoin:round;stroke-miterlimit:4;stroke-dasharray:none;stroke-opacity:1;filter:url(#filter4598)" />
        <rect
           inkscape:export-ydpi="23.655306"
           inkscape:export-xdpi="23.655306"
           ry="12.658623"
           y="323.65469"
           x="114.57281"
           height="131.25"
           width="105.9375"
           id="rect4649"
           style="opacity:1;fill:url(#radialGradient4655);fill-opacity:1;fill-rule:evenodd;stroke:none;stroke-width:1.19236875;stroke-linecap:round;stroke-linejoin:round;stroke-miterlimit:4;stroke-dasharray:none;stroke-opacity:1" />
        <rect
           style="opacity:1;fill:none;fill-opacity:1;fill-rule:evenodd;stroke:#fdf5ce;stroke-width:4.18110228;stroke-linecap:round;stroke-linejoin:round;stroke-miterlimit:4;stroke-dasharray:none;stroke-opacity:1;filter:url(#filter4582)"
           id="rect4651"
           width="105.9375"
           height="131.25"
           x="114.57281"
           y="323.65469"
           ry="12.658623"
           inkscape:export-xdpi="23.655306"
           inkscape:export-ydpi="23.655306" />
      </g>
      <g
         transform="translate(267.11741,138.14303)"
         style="fill:url(#radialGradient4673);fill-opacity:1"
         id="g4669">
        <path
           inkscape:connector-curvature="0"
           id="path4663"
           d="m 205.83403,315.2469 c -28.43301,1.32185 -57.19422,-1.27668 -85.55274,1.4043 -11.97783,4.13957 -15.84227,18.71316 -13.64488,30.07613 0.56548,34.16788 -1.45163,68.48366 1.16051,102.55473 4.2884,12.33772 19.43874,15.53488 30.96275,13.44069 25.74868,-0.67663 51.74783,1.87954 77.32631,-1.54616 12.07399,-4.98628 14.16014,-20.05613 12.40188,-31.50973 -0.55573,-33.53843 1.46739,-67.25355 -1.17336,-100.67777 -3.0501,-8.73241 -12.52577,-13.92901 -21.48047,-13.74219 z"
           style="opacity:1;fill:#75221c;fill-opacity:1;fill-rule:evenodd;stroke:none;stroke-width:1.19236875;stroke-linecap:round;stroke-linejoin:round;stroke-miterlimit:4;stroke-dasharray:none;stroke-opacity:1;filter:url(#filter4598)" />
        <rect
           inkscape:export-ydpi="23.655306"
           inkscape:export-xdpi="23.655306"
           ry="12.658623"
           y="323.65469"
           x="114.57281"
           height="131.25"
           width="105.9375"
           id="rect4665"
           style="opacity:1;fill:url(#radialGradient4671);fill-opacity:1;fill-rule:evenodd;stroke:none;stroke-width:1.19236875;stroke-linecap:round;stroke-linejoin:round;stroke-miterlimit:4;stroke-dasharray:none;stroke-opacity:1" />
        <rect
           style="opacity:1;fill:none;fill-opacity:1;fill-rule:evenodd;stroke:#fdf5ce;stroke-width:4.18110228;stroke-linecap:round;stroke-linejoin:round;stroke-miterlimit:4;stroke-dasharray:none;stroke-opacity:1;filter:url(#filter4582)"
           id="rect4667"
           width="105.9375"
           height="131.25"
           x="114.57281"
           y="323.65469"
           ry="12.658623"
           inkscape:export-xdpi="23.655306"
           inkscape:export-ydpi="23.655306" />
      </g>
      <g
         id="g4681"
         style="fill:url(#radialGradient4685);fill-opacity:1"
         transform="translate(16.804899,288.14302)">
        <path
           style="opacity:1;fill:#75221c;fill-opacity:1;fill-rule:evenodd;stroke:none;stroke-width:1.19236875;stroke-linecap:round;stroke-linejoin:round;stroke-miterlimit:4;stroke-dasharray:none;stroke-opacity:1;filter:url(#filter4598)"
           d="m 205.83403,315.2469 c -28.43301,1.32185 -57.19422,-1.27668 -85.55274,1.4043 -11.97783,4.13957 -15.84227,18.71316 -13.64488,30.07613 0.56548,34.16788 -1.45163,68.48366 1.16051,102.55473 4.2884,12.33772 19.43874,15.53488 30.96275,13.44069 25.74868,-0.67663 51.74783,1.87954 77.32631,-1.54616 12.07399,-4.98628 14.16014,-20.05613 12.40188,-31.50973 -0.55573,-33.53843 1.46739,-67.25355 -1.17336,-100.67777 -3.0501,-8.73241 -12.52577,-13.92901 -21.48047,-13.74219 z"
           id="path4675"
           inkscape:connector-curvature="0" />
        <rect
           style="opacity:1;fill:url(#radialGradient4683);fill-opacity:1;fill-rule:evenodd;stroke:none;stroke-width:1.19236875;stroke-linecap:round;stroke-linejoin:round;stroke-miterlimit:4;stroke-dasharray:none;stroke-opacity:1"
           id="rect4677"
           width="105.9375"
           height="131.25"
           x="114.57281"
           y="323.65469"
           ry="12.658623"
           inkscape:export-xdpi="23.655306"
           inkscape:export-ydpi="23.655306" />
        <rect
           inkscape:export-ydpi="23.655306"
           inkscape:export-xdpi="23.655306"
           ry="12.658623"
           y="323.65469"
           x="114.57281"
           height="131.25"
           width="105.9375"
           id="rect4679"
           style="opacity:1;fill:none;fill-opacity:1;fill-rule:evenodd;stroke:#fdf5ce;stroke-width:4.18110228;stroke-linecap:round;stroke-linejoin:round;stroke-miterlimit:4;stroke-dasharray:none;stroke-opacity:1;filter:url(#filter4582)" />
      </g>
      <g
         transform="translate(141.02365,288.14302)"
         style="fill:url(#radialGradient4697);fill-opacity:1"
         id="g4693">
        <path
           inkscape:connector-curvature="0"
           id="path4687"
           d="m 205.83403,315.2469 c -28.43301,1.32185 -57.19422,-1.27668 -85.55274,1.4043 -11.97783,4.13957 -15.84227,18.71316 -13.64488,30.07613 0.56548,34.16788 -1.45163,68.48366 1.16051,102.55473 4.2884,12.33772 19.43874,15.53488 30.96275,13.44069 25.74868,-0.67663 51.74783,1.87954 77.32631,-1.54616 12.07399,-4.98628 14.16014,-20.05613 12.40188,-31.50973 -0.55573,-33.53843 1.46739,-67.25355 -1.17336,-100.67777 -3.0501,-8.73241 -12.52577,-13.92901 -21.48047,-13.74219 z"
           style="opacity:1;fill:#75221c;fill-opacity:1;fill-rule:evenodd;stroke:none;stroke-width:1.19236875;stroke-linecap:round;stroke-linejoin:round;stroke-miterlimit:4;stroke-dasharray:none;stroke-opacity:1;filter:url(#filter4598)" />
        <rect
           inkscape:export-ydpi="23.655306"
           inkscape:export-xdpi="23.655306"
           ry="12.658623"
           y="323.65469"
           x="114.57281"
           height="131.25"
           width="105.9375"
           id="rect4689"
           style="opacity:1;fill:url(#radialGradient4695);fill-opacity:1;fill-rule:evenodd;stroke:none;stroke-width:1.19236875;stroke-linecap:round;stroke-linejoin:round;stroke-miterlimit:4;stroke-dasharray:none;stroke-opacity:1" />
        <rect
           style="opacity:1;fill:none;fill-opacity:1;fill-rule:evenodd;stroke:#fdf5ce;stroke-width:4.18110228;stroke-linecap:round;stroke-linejoin:round;stroke-miterlimit:4;stroke-dasharray:none;stroke-opacity:1;filter:url(#filter4582)"
           id="rect4691"
           width="105.9375"
           height="131.25"
           x="114.57281"
           y="323.65469"
           ry="12.658623"
           inkscape:export-xdpi="23.655306"
           inkscape:export-ydpi="23.655306" />
      </g>
      <g
         id="g4705"
         style="fill:url(#radialGradient4709);fill-opacity:1"
         transform="translate(267.11741,288.14302)">
        <path
           style="opacity:1;fill:#75221c;fill-opacity:1;fill-rule:evenodd;stroke:none;stroke-width:1.19236875;stroke-linecap:round;stroke-linejoin:round;stroke-miterlimit:4;stroke-dasharray:none;stroke-opacity:1;filter:url(#filter4598)"
           d="m 205.83403,315.2469 c -28.43301,1.32185 -57.19422,-1.27668 -85.55274,1.4043 -11.97783,4.13957 -15.84227,18.71316 -13.64488,30.07613 0.56548,34.16788 -1.45163,68.48366 1.16051,102.55473 4.2884,12.33772 19.43874,15.53488 30.96275,13.44069 25.74868,-0.67663 51.74783,1.87954 77.32631,-1.54616 12.07399,-4.98628 14.16014,-20.05613 12.40188,-31.50973 -0.55573,-33.53843 1.46739,-67.25355 -1.17336,-100.67777 -3.0501,-8.73241 -12.52577,-13.92901 -21.48047,-13.74219 z"
           id="path4699"
           inkscape:connector-curvature="0" />
        <rect
           style="opacity:1;fill:url(#radialGradient4707);fill-opacity:1;fill-rule:evenodd;stroke:none;stroke-width:1.19236875;stroke-linecap:round;stroke-linejoin:round;stroke-miterlimit:4;stroke-dasharray:none;stroke-opacity:1"
           id="rect4701"
           width="105.9375"
           height="131.25"
           x="114.57281"
           y="323.65469"
           ry="12.658623"
           inkscape:export-xdpi="23.655306"
           inkscape:export-ydpi="23.655306" />
        <rect
           inkscape:export-ydpi="23.655306"
           inkscape:export-xdpi="23.655306"
           ry="12.658623"
           y="323.65469"
           x="114.57281"
           height="131.25"
           width="105.9375"
           id="rect4703"
           style="opacity:1;fill:none;fill-opacity:1;fill-rule:evenodd;stroke:#fdf5ce;stroke-width:4.18110228;stroke-linecap:round;stroke-linejoin:round;stroke-miterlimit:4;stroke-dasharray:none;stroke-opacity:1;filter:url(#filter4582)" />
      </g>
    </g>
  </g>
</svg>
