<?xml version="1.0" encoding="UTF-8" standalone="no"?>
<!-- Created with Inkscape (http://www.inkscape.org/) -->

<svg
   xmlns:dc="http://purl.org/dc/elements/1.1/"
   xmlns:cc="http://creativecommons.org/ns#"
   xmlns:rdf="http://www.w3.org/1999/02/22-rdf-syntax-ns#"
   xmlns:svg="http://www.w3.org/2000/svg"
   xmlns="http://www.w3.org/2000/svg"
   xmlns:xlink="http://www.w3.org/1999/xlink"
   xmlns:sodipodi="http://sodipodi.sourceforge.net/DTD/sodipodi-0.dtd"
   xmlns:inkscape="http://www.inkscape.org/namespaces/inkscape"
   width="162.79617mm"
   height="152.64804mm"
   viewBox="0 0 576.83683 540.87888"
   id="svg2"
   version="1.1"
   inkscape:version="0.91 r13725"
   sodipodi:docname="zone.svg">
  <defs
     id="defs4">
    <linearGradient
       inkscape:collect="always"
       id="linearGradient4178">
      <stop
         style="stop-color:#fdf5ce;stop-opacity:1"
         offset="0"
         id="stop4180" />
      <stop
         id="stop4188"
         offset="0.14971778"
         style="stop-color:#e4d5a7;stop-opacity:1;" />
      <stop
         id="stop4186"
         offset="0.51921779"
         style="stop-color:#947e45;stop-opacity:1" />
      <stop
         style="stop-color:#b19a5a;stop-opacity:1"
         offset="1"
         id="stop4182" />
    </linearGradient>
    <clipPath
       clipPathUnits="userSpaceOnUse"
       id="clipPath4306">
      <path
         clip-path="none"
         sodipodi:nodetypes="ccccscssssscssccccccccccccsscssssscscccccscccsssscccsssc"
         inkscape:connector-curvature="0"
         id="path4308"
         d="m 254.0241,799.59655 c 5.3033,20.85965 13.26156,38.30242 33.06055,59.51562 l 14.93945,1.48438 38.87891,39.64648 c 0,0 5.28862,15.44438 -2.64649,17.05078 -7.93511,1.6064 -20.58594,-23.33203 -20.58594,-23.33203 -8.48528,12.02082 0.0756,45.45124 -6.18164,69.70703 -6.25729,24.25579 -26.51423,45.22809 -33.69726,73.44329 -7.18303,28.2153 -7.57047,67.6717 -0.23242,68.9004 8.11867,1.3595 18.02519,1.5034 22.2832,8.2305 4.25801,6.7272 4.01083,18.126 -5.06055,20.1719 -9.07138,2.0459 -24.95028,7.6867 -15.05078,33.4961 0,0 1.923,-10.1056 9.92969,-13.7891 8.00669,-3.6835 22.80401,3.5568 36.8789,-7.8672 14.07491,-11.4239 5.47416,-31.1224 9.7168,-36.7793 l 107,-104.1816 99.51758,99.3027 9.5,27.75 29.01562,26.6719 c 13,-0.75 10.98438,-21.1719 10.98438,-21.1719 l 0.5918,-0.7304 c 0,0 20.42187,2.0156 21.17187,-10.9844 l -26.67187,-29.0156 -27.75,-9.5 -99.30274,-99.5176 104.18164,-107 c 5.65685,-4.24264 25.35538,4.3581 36.7793,-9.7168 11.42392,-14.07489 4.18368,-28.87221 7.86719,-36.8789 3.68351,-8.00669 13.78906,-9.92969 13.78906,-9.92969 -25.80939,-9.8995 -31.4502,5.9794 -33.49609,15.05078 -2.04589,9.07138 -13.44474,9.31856 -20.17188,5.06055 -6.72715,-4.25801 -6.87105,-14.16453 -8.23047,-22.2832 -1.22871,-7.33805 -40.68518,-6.95061 -68.90039,0.23242 -28.2152,7.18303 -49.18757,27.43997 -73.44336,33.69726 -24.25579,6.25724 -57.68621,-2.30364 -69.70703,6.18164 0,0 24.93843,12.65083 23.33203,20.58594 -1.6064,7.93511 -17.05078,2.64649 -17.05078,2.64649 l -39.64648,-38.87891 -1.48438,-14.93945 c -21.2132,-19.79899 -38.65597,-27.75725 -59.51562,-33.06055 -0.65625,-0.1875 -0.8418,0.0117 -0.5918,0.73047 z m 257.55469,51.69531 c 14.75529,-0.18922 31.85842,2.85711 50.45312,12.06055 L 448.54168,974.72155 392.32683,918.86022 c 2.12132,-9.89949 14.05075,-4.00782 26.16211,-7.42578 12.11134,-3.41795 -0.0496,-9.03099 7.42578,-19.44531 7.47544,-10.41432 33.96317,-27.8309 52.67969,-34.64844 8.77337,-3.19572 19.965,-5.88187 32.98438,-6.04883 z m -137.56055,86.01563 55.86133,56.21484 -111.36914,113.49017 c -17.32411,-35.0017 -12.82925,-64.7209 -6.01172,-83.4375 6.81754,-18.7165 24.23412,-45.20419 34.64844,-52.67962 10.41432,-7.47543 16.02736,4.68555 19.44531,-7.42578 3.41796,-12.11136 -2.47371,-24.04079 7.42578,-26.16211 z"
         style="fill:#d9ad5c;fill-opacity:1;fill-rule:evenodd;stroke:none;stroke-width:5;stroke-linecap:round;stroke-linejoin:round;stroke-miterlimit:4;stroke-dasharray:none;stroke-opacity:1" />
    </clipPath>
    <radialGradient
       inkscape:collect="always"
       xlink:href="#linearGradient4178"
       id="radialGradient4190"
       cx="259.15216"
       cy="413.38739"
       fx="259.15216"
       fy="413.38739"
       r="88.929688"
       gradientTransform="matrix(0.76464516,2.6787192,-2.8418425,0.81120898,1235.7746,-639.2043)"
       gradientUnits="userSpaceOnUse" />
    <filter
       inkscape:collect="always"
       style="color-interpolation-filters:sRGB"
       id="filter4242"
       x="-0.042285193"
       width="1.0845704"
       y="-0.031341463"
       height="1.0626829">
      <feGaussianBlur
         inkscape:collect="always"
         stdDeviation="3.3271277"
         id="feGaussianBlur4244" />
    </filter>
    <filter
       inkscape:collect="always"
       style="color-interpolation-filters:sRGB"
       id="filter4258"
       x="-0.043035354"
       width="1.0860707"
       y="-0.030941698"
       height="1.0618834">
      <feGaussianBlur
         inkscape:collect="always"
         stdDeviation="3.0262659"
         id="feGaussianBlur4260" />
    </filter>
    <filter
       inkscape:collect="always"
       style="color-interpolation-filters:sRGB"
       id="filter4316"
       x="-0.018229573"
       width="1.0364591"
       y="-1.4293152"
       height="3.8586305">
      <feGaussianBlur
         inkscape:collect="always"
         stdDeviation="2.9780378"
         id="feGaussianBlur4318" />
    </filter>
    <filter
       inkscape:collect="always"
       style="color-interpolation-filters:sRGB"
       id="filter4356"
       x="-0.017833604"
       width="1.0356672"
       y="-0.036684568"
       height="1.0733691">
      <feGaussianBlur
         inkscape:collect="always"
         stdDeviation="3.4525474"
         id="feGaussianBlur4358" />
    </filter>
    <filter
       inkscape:collect="always"
       style="color-interpolation-filters:sRGB"
       id="filter4493"
       x="-0.061857648"
       width="1.1237153"
       y="-0.070736963"
       height="1.1414739">
      <feGaussianBlur
         inkscape:collect="always"
         stdDeviation="12.330213"
         id="feGaussianBlur4495" />
    </filter>
  </defs>
  <sodipodi:namedview
     id="base"
     pagecolor="#ffffff"
     bordercolor="#666666"
     borderopacity="1.0"
     inkscape:pageopacity="0.0"
     inkscape:pageshadow="2"
     inkscape:zoom="0.70710678"
     inkscape:cx="-27.588636"
     inkscape:cy="272.99823"
     inkscape:document-units="px"
     inkscape:current-layer="layer1"
     showgrid="false"
     fit-margin-top="0"
     fit-margin-left="0"
     fit-margin-right="0"
     fit-margin-bottom="0"
     inkscape:window-width="1536"
     inkscape:window-height="801"
     inkscape:window-x="-8"
     inkscape:window-y="-8"
     inkscape:window-maximized="1" />
  <metadata
     id="metadata7">
    <rdf:RDF>
      <cc:Work
         rdf:about="">
        <dc:format>image/svg+xml</dc:format>
        <dc:type
           rdf:resource="http://purl.org/dc/dcmitype/StillImage" />
        <dc:title />
      </cc:Work>
    </rdf:RDF>
  </metadata>
  <g
     inkscape:label="Layer 1"
     inkscape:groupmode="layer"
     id="layer1"
     transform="translate(-36.652155,-273.36346)">
    <rect
       style="opacity:1;fill:#aa3a39;fill-opacity:1;fill-rule:evenodd;stroke:none;stroke-width:4.92447472;stroke-linecap:round;stroke-linejoin:round;stroke-miterlimit:4;stroke-dasharray:none;stroke-opacity:1;"
       id="rect4147"
       width="486.99429"
       height="486.99429"
       x="75.837807"
       y="293.79718"
       ry="46.968964"
       inkscape:export-xdpi="23.655306"
       inkscape:export-ydpi="23.655306" />
    <path
       style="opacity:0.6;fill:#32150f;fill-opacity:1;fill-rule:evenodd;stroke:none;stroke-width:5;stroke-linecap:round;stroke-linejoin:round;stroke-miterlimit:4;stroke-dasharray:none;stroke-opacity:1;filter:url(#filter4493)"
       d="M 282.68359 56.431641 C 231.18304 56.431641 163.18359 121.49809 163.18359 174.93164 C 163.18359 228.36519 14.056771 416.73925 47.806641 451.75586 C 81.556501 486.77247 231.18304 471.43164 282.68359 471.43164 C 334.18414 471.43164 482.80873 485.77247 516.55859 450.75586 C 550.30846 415.73925 390.18359 223.36519 390.18359 169.93164 C 390.18359 116.49809 334.18414 56.431641 282.68359 56.431641 z M 281.5 144.0918 A 18.286179 17.286179 0 0 1 299.78711 161.37891 A 18.286179 17.286179 0 0 1 281.5 178.66602 A 18.286179 17.286179 0 0 1 263.21289 161.37891 A 18.286179 17.286179 0 0 1 281.5 144.0918 z M 197.375 307.51758 C 197.94511 307.5507 198.48735 307.6689 199 307.87891 C 199 307.87891 253.06232 341.72708 282 341.87891 C 310.93767 342.03074 360 310.87891 360 310.87891 C 376.47456 304.33133 432.72787 388.94657 415 388.87891 L 153 387.87891 C 135.82613 387.81332 179.70151 306.49065 197.375 307.51758 z "
       transform="translate(36.652155,273.36346)"
       id="path4360" />
    <g
       id="g4381">
      <g
         id="g4378">
        <path
           style="opacity:1;fill:#5b1e1d;fill-opacity:1;fill-rule:evenodd;stroke:none;stroke-width:1.24236357;stroke-linecap:round;stroke-linejoin:round;stroke-miterlimit:4;stroke-dasharray:none;stroke-opacity:1;filter:url(#filter4356)"
           d="m 434.21095,500.48398 c -78.96611,0.59319 -157.97307,-0.33229 -236.91797,0.4707 -13.23955,2.73421 -16.80347,17.61803 -22.75781,27.70117 -28.85069,55.02419 -58.66592,109.58413 -86.800785,164.96094 -0.99539,10.39107 -2.24916,23.46921 6.11719,31.19141 8.177355,3.38888 17.106935,-0.0996 25.615235,1.24839 141.26366,-0.0912 282.52762,0.21112 423.79102,-0.17222 9.15397,-2.84958 8.6942,-14.56132 8.14648,-22.24414 -1.0902,-15.01252 -12.37787,-26.41404 -17.69911,-39.96771 -27.75591,-52.46828 -54.21785,-105.67519 -82.91807,-157.61042 -4.08761,-4.65866 -10.68698,-5.75235 -16.57618,-5.57812 z m -209.27148,37.64453 c 63.77525,0.49426 127.58684,-0.41867 191.3457,0.41211 6.0345,4.78078 6.96504,13.22001 11.63589,19.11443 22.90913,42.3883 46.30952,84.53059 68.8563,127.06916 -121.26187,-0.31643 -242.83615,0.42579 -363.91602,-0.375 2.94506,-6.20478 7.18475,-11.76756 9.96487,-18.11099 23.57191,-42.19485 46.11054,-85.1318 70.48435,-126.77768 3.48329,-2.1368 7.78279,-1.28773 11.62891,-1.33203 z"
           id="path4329"
           inkscape:connector-curvature="0" />
      </g>
      <g
         id="g4368">
        <g
           id="g4322"
           transform="translate(-1.1828065,0)">
          <path
             sodipodi:nodetypes="sssssssssssscsssss"
             inkscape:connector-curvature="0"
             id="rect4172"
             transform="translate(36.652155,273.36346)"
             d="m 165.06836,234.24023 c -6.25888,0 -10.17768,2.72731 -12.93555,7.9375 L 57.382812,421.17969 c -2.064161,3.89963 -0.949367,26.46484 3.462891,26.46484 l 444.701177,0 c 4.41225,0 4.00359,-19.55287 1.96289,-23.46484 L 412.2168,241.50586 c -2.45061,-4.69775 -5.15959,-7.26563 -11.33008,-7.26563 z m 15.58594,25.58008 197.21679,0 c 5.16047,0 7.50064,1.92657 9.47852,5.56446 l 79.69336,146.57937 c 1.70667,2.9962 2.04746,6.30344 -1.64258,6.30344 l -371.908202,0 c -3.690031,0 -4.563687,-5.57911 -2.898438,-8.60032 l 79.24219,-143.76687 c 2.22489,-4.03655 5.58396,-6.08008 10.81836,-6.08008 z"
             style="opacity:1;fill:#bc9a58;fill-opacity:1;fill-rule:evenodd;stroke:none;stroke-width:1.24236357;stroke-linecap:round;stroke-linejoin:round;stroke-miterlimit:4;stroke-dasharray:none;stroke-opacity:1" />
          <path
             inkscape:connector-curvature="0"
             id="path4280"
             d="m 122.65234,693.74219 a 2.50025,2.50025 0 1 0 0,5 l 387,0 a 2.50025,2.50025 0 1 0 0,-5 l -387,0 z"
             style="color:#000000;font-style:normal;font-variant:normal;font-weight:normal;font-stretch:normal;font-size:medium;line-height:normal;font-family:sans-serif;text-indent:0;text-align:start;text-decoration:none;text-decoration-line:none;text-decoration-style:solid;text-decoration-color:#000000;letter-spacing:normal;word-spacing:normal;text-transform:none;direction:ltr;block-progression:tb;writing-mode:lr-tb;baseline-shift:baseline;text-anchor:start;white-space:normal;clip-rule:nonzero;display:inline;overflow:visible;visibility:visible;opacity:1;isolation:auto;mix-blend-mode:normal;color-interpolation:sRGB;color-interpolation-filters:linearRGB;solid-color:#000000;solid-opacity:1;fill:#feefd2;fill-opacity:1;fill-rule:evenodd;stroke:none;stroke-width:5;stroke-linecap:round;stroke-linejoin:round;stroke-miterlimit:4;stroke-dasharray:none;stroke-dashoffset:0;stroke-opacity:1;filter:url(#filter4316);color-rendering:auto;image-rendering:auto;shape-rendering:auto;text-rendering:auto;enable-background:accumulate" />
          <path
             transform="matrix(0.62621199,0,0,1.2896678,72.329413,-143.80074)"
             style="color:#000000;font-style:normal;font-variant:normal;font-weight:normal;font-stretch:normal;font-size:medium;line-height:normal;font-family:sans-serif;text-indent:0;text-align:start;text-decoration:none;text-decoration-line:none;text-decoration-style:solid;text-decoration-color:#000000;letter-spacing:normal;word-spacing:normal;text-transform:none;direction:ltr;block-progression:tb;writing-mode:lr-tb;baseline-shift:baseline;text-anchor:start;white-space:normal;clip-rule:nonzero;display:inline;overflow:visible;visibility:visible;opacity:1;isolation:auto;mix-blend-mode:normal;color-interpolation:sRGB;color-interpolation-filters:linearRGB;solid-color:#000000;solid-opacity:1;fill:#feefd2;fill-opacity:1;fill-rule:evenodd;stroke:none;stroke-width:5;stroke-linecap:round;stroke-linejoin:round;stroke-miterlimit:4;stroke-dasharray:none;stroke-dashoffset:0;stroke-opacity:1;filter:url(#filter4316);color-rendering:auto;image-rendering:auto;shape-rendering:auto;text-rendering:auto;enable-background:accumulate"
             d="m 200.65234,507.74219 a 2.50025,2.50025 0 1 0 0,5 l 387,0 a 2.50025,2.50025 0 1 0 0,-5 l -387,0 z"
             id="path4320"
             inkscape:connector-curvature="0" />
        </g>
        <g
           id="g4363">
          <path
             inkscape:connector-curvature="0"
             id="path4204"
             d="m 317.03267,347.96649 c -51.76392,0.10644 -96.54535,49.64188 -93.11524,100.98141 1.72749,37.87094 25.99835,74.44214 61.39649,88.81546 10.16447,19.84944 11.3182,44.66948 26.10937,62.41798 6.22467,5.5353 15.97909,1.3307 18.71289,-5.8731 10.18959,-17.6201 11.92003,-38.65716 21.02735,-56.69331 50.03371,-19.59893 76.39602,-84.59113 52.47851,-133.09961 -15.13994,-33.00411 -49.75931,-57.37098 -86.60937,-56.54883 z m 1.17773,55.62695 c 26.40623,-0.44997 46.30299,33.87358 30.83789,55.97266 -15.08814,21.06674 -52.67315,19.39101 -64.27734,-4.38867 -10.32806,-22.57921 8.6843,-51.67864 33.43945,-51.58399 z"
             style="opacity:1;fill:#75221c;fill-opacity:1;fill-rule:evenodd;stroke:none;stroke-width:1;stroke-linecap:round;stroke-linejoin:round;stroke-miterlimit:4;stroke-dasharray:none;stroke-opacity:1;filter:url(#filter4242)" />
          <path
             sodipodi:nodetypes="cccscccccccc"
             inkscape:connector-curvature="0"
             id="path4164"
             d="m 318.15215,353.81267 c -47.73361,4.3e-4 -88.42925,42.12621 -88.42969,90.9644 0.0485,37.32143 24.99072,75.46322 59.33985,87.74068 7,6 17.90844,64.39122 29.6289,64.33984 11.22047,-0.0492 22.25782,-60.7207 28.25782,-64.2207 34.50579,-12.19366 59.59065,-50.41605 59.63281,-87.85982 -4.3e-4,-48.83819 -40.69607,-90.96397 -88.42969,-90.9644 z m 0,43.63476 c 22.80664,-2e-4 42.25072,20.92583 42.25049,44.26022 2.1e-4,23.33439 -19.44385,38.32983 -42.25049,38.32963 -22.80664,2e-4 -42.2507,-14.99524 -42.25049,-38.32963 -2.2e-4,-23.33439 19.44385,-44.26042 42.25049,-44.26022 z"
             style="opacity:1;fill:url(#radialGradient4190);fill-opacity:1;fill-rule:evenodd;stroke:none;stroke-width:1;stroke-linecap:round;stroke-linejoin:round;stroke-miterlimit:4;stroke-dasharray:none;stroke-opacity:1" />
          <path
             inkscape:connector-curvature="0"
             id="path4200"
             d="m 317.16138,357.98485 c -45.91046,0.2121 -85.40245,43.6676 -83.31458,89.06213 1.09028,35.38335 23.84707,69.70733 57.37317,82.33045 9.3566,11.34325 10.29151,27.05775 16.12106,40.22596 2.92973,7.92431 4.97527,17.81305 11.69144,23.09826 6.53699,-8.14555 9.02701,-19.01225 12.30717,-28.83419 3.6756,-11.20757 5.99424,-23.43231 12.45846,-33.34159 7.869,-4.65735 16.87759,-7.30791 23.68582,-13.76399 32.07646,-25.11602 45.48818,-73.48493 25.95016,-110.3478 -14.02817,-28.33875 -44.15406,-49.10914 -76.2727,-48.42923 z m 1.08008,35.62696 c 31.25773,-0.43418 55.63277,36.38087 42.83007,64.96484 -9.78449,22.39639 -38.62149,30.72642 -60.59179,22.74024 -19.29669,-6.2293 -32.30966,-27.58083 -27.85742,-47.48243 3.70093,-21.60526 23.14995,-40.39221 45.61914,-40.22265 z"
             style="opacity:1;fill:none;fill-opacity:1;fill-rule:evenodd;stroke:#feefd2;stroke-width:3;stroke-linecap:round;stroke-linejoin:round;stroke-miterlimit:4;stroke-dasharray:none;stroke-opacity:1;filter:url(#filter4258)" />
        </g>
      </g>
    </g>
  </g>
</svg>
