<?xml version="1.0" encoding="UTF-8" standalone="no"?>
<!-- Created with Inkscape (http://www.inkscape.org/) -->

<svg
   xmlns:dc="http://purl.org/dc/elements/1.1/"
   xmlns:cc="http://creativecommons.org/ns#"
   xmlns:rdf="http://www.w3.org/1999/02/22-rdf-syntax-ns#"
   xmlns:svg="http://www.w3.org/2000/svg"
   xmlns="http://www.w3.org/2000/svg"
   xmlns:sodipodi="http://sodipodi.sourceforge.net/DTD/sodipodi-0.dtd"
   xmlns:inkscape="http://www.inkscape.org/namespaces/inkscape"
   width="115.90385mm"
   height="145.713mm"
   viewBox="0 0 115.90385 145.713"
   version="1.1"
   id="svg8"
   inkscape:version="0.92.3 (2405546, 2018-03-11)"
   sodipodi:docname="npc.svg"
   inkscape:export-filename="C:\xampp\htdocs\ffxiv\www\icons\map\npc.png"
   inkscape:export-xdpi="6.2753491"
   inkscape:export-ydpi="6.2753491">
  <defs
     id="defs2">
    <filter
       inkscape:collect="always"
       style="color-interpolation-filters:sRGB"
       id="filter887"
       x="-0.067380317"
       width="1.1347606"
       y="-0.052158102"
       height="1.1043162">
      <feGaussianBlur
         inkscape:collect="always"
         stdDeviation="2.8675791"
         id="feGaussianBlur889" />
    </filter>
  </defs>
  <sodipodi:namedview
     id="base"
     pagecolor="#ffffff"
     bordercolor="#666666"
     borderopacity="1.0"
     inkscape:pageopacity="0.0"
     inkscape:pageshadow="2"
     inkscape:zoom="0.7"
     inkscape:cx="19.415672"
     inkscape:cy="210.75109"
     inkscape:document-units="mm"
     inkscape:current-layer="layer1"
     showgrid="false"
     fit-margin-top="0"
     fit-margin-left="0"
     fit-margin-right="0"
     fit-margin-bottom="0"
     inkscape:window-width="1920"
     inkscape:window-height="1001"
     inkscape:window-x="-9"
     inkscape:window-y="-9"
     inkscape:window-maximized="1" />
  <metadata
     id="metadata5">
    <rdf:RDF>
      <cc:Work
         rdf:about="">
        <dc:format>image/svg+xml</dc:format>
        <dc:type
           rdf:resource="http://purl.org/dc/dcmitype/StillImage" />
        <dc:title></dc:title>
      </cc:Work>
    </rdf:RDF>
  </metadata>
  <g
     inkscape:label="Layer 1"
     inkscape:groupmode="layer"
     id="layer1"
     transform="translate(-42.967717,-64.732082)">
    <g
       id="g896">
      <path
         inkscape:connector-curvature="0"
         id="path845"
         d="m 84.474855,71.700395 c -12.77353,3.857936 -19.302235,17.050398 -25.255677,27.87581 -5.245063,11.302845 -10.288011,23.758105 -9.226745,36.385905 0.608319,2.62341 4.344441,2.98358 5.273437,4.94531 -1.616732,6.63296 -7.783986,13.74165 -3.046875,20.5957 2.981837,4.96737 6.520834,9.86212 6.560547,15.85547 2.175131,5.75501 8.283742,8.62337 13.855469,10.09961 -0.807731,6.63267 1.867749,16.22652 10.011719,16.10352 10.046805,-1.69072 15.638976,-11.47719 23.73828,-16.70703 6.41501,-5.82255 15.7979,-4.58985 22.7207,-9.53516 17.57963,-9.99355 27.27531,-32.41382 20.93555,-51.9043 -4.07776,-14.7495 -12.2246,-29.267712 -24.95898,-38.124991 -9.18865,-5.531907 -20.41302,-4.902102 -30.414066,-7.214844 -2.764269,-3.547451 -4.484021,-9.228094 -10.193359,-8.375 z"
         style="opacity:0.85900005;fill:#413a34;fill-opacity:1;fill-rule:evenodd;stroke:#000000;stroke-width:0.26458332px;stroke-linecap:butt;stroke-linejoin:miter;stroke-opacity:1;filter:url(#filter887)" />
      <g
         id="g843">
        <path
           style="fill:#25211e;fill-opacity:1;fill-rule:evenodd;stroke:#000000;stroke-width:0.26458332px;stroke-linecap:butt;stroke-linejoin:miter;stroke-opacity:1"
           d="m 92.604164,119.59726 4.157746,24.94642 11.71726,29.10416 c 0,0 11.99226,1.01584 24.56845,-10.9613 12.5762,-11.97714 8.69345,-32.88393 8.69345,-32.88393 z"
           id="path830"
           inkscape:connector-curvature="0"
           sodipodi:nodetypes="ccczcc" />
        <path
           style="fill:#cdb292;fill-opacity:1;fill-rule:evenodd;stroke:none;stroke-width:0.27630961px;stroke-linecap:butt;stroke-linejoin:miter;stroke-opacity:1"
           d="m 66.523808,132.01339 c -3.02381,7.37054 1.767007,11.95436 -3.784432,19.6493 -5.675655,7.86712 6.287522,9.60068 5.863301,21.14169 -0.259254,7.05307 14.930061,4.9657 14.930061,4.9657 l 0.377976,15.66444 24.568456,-19.78668 c 0,0 -2.43053,-6.67962 -2.26786,-11.12999 0.16267,-4.45037 5.84746,-9.77325 4.15774,-14.78801 -1.68971,-5.01475 -7.83049,-4.81821 -10.583335,-8.84692 -2.752842,-4.02871 -1.511907,-6.04509 -1.511907,-6.04509 z"
           id="path826"
           inkscape:connector-curvature="0"
           sodipodi:nodetypes="cssccczzzcc" />
        <path
           style="fill:#334176;fill-opacity:1;fill-rule:evenodd;stroke:#cccdce;stroke-width:2.64583325;stroke-linecap:butt;stroke-linejoin:round;stroke-miterlimit:4;stroke-dasharray:none;stroke-opacity:1"
           d="M 84.666666,83.065476 C 74.510424,90.014484 62.770909,112.84826 60.098214,131.8244 l 81.642856,-0.37797 C 140.40472,123.16107 132.2648,104.6779 121.63236,96.947754 110.99991,89.217609 88.675709,95.894413 84.666666,83.065476 Z"
           id="path828"
           inkscape:connector-curvature="0"
           sodipodi:nodetypes="ccczc" />
      </g>
    </g>
  </g>
</svg>
